HIERARCHY
ROOT joint_Root
{
	OFFSET 0.0 0.0 0.0
	CHANNELS 6 Xposition Yposition Zposition Zrotation Xrotation Yrotation 
	JOINT Hips
	{
		OFFSET 4.5925 91.4895 -427.239
		CHANNELS 6 Xposition Yposition Zposition Zrotation Xrotation Yrotation 
		JOINT Spine
		{
			OFFSET 15.7357 0.0 0.0
			CHANNELS 6 Xposition Yposition Zposition Zrotation Xrotation Yrotation 
			JOINT Chest
			{
				OFFSET 8.98455 -0.406207 0.0
				CHANNELS 6 Xposition Yposition Zposition Zrotation Xrotation Yrotation 
				JOINT Neck
				{
					OFFSET 16.3773 0.0 0.0
					CHANNELS 6 Xposition Yposition Zposition Zrotation Xrotation Yrotation 
					JOINT Head
					{
						OFFSET 6.45672 0.0 0.0
						CHANNELS 6 Xposition Yposition Zposition Zrotation Xrotation Yrotation 
						End Site
						{
							OFFSET 0.0 0.0 0.0
						}
					}
				}
				JOINT Shoulder_L
				{
					OFFSET 12.9942 -0.242716 4.98039
					CHANNELS 6 Xposition Yposition Zposition Zrotation Xrotation Yrotation 
					JOINT UpperArm_L
					{
						OFFSET 5.34809 0.0 0.0
						CHANNELS 6 Xposition Yposition Zposition Zrotation Xrotation Yrotation 
						JOINT LowerArm_L
						{
							OFFSET 24.3286 1.87007e-05 0.0
							CHANNELS 6 Xposition Yposition Zposition Zrotation Xrotation Yrotation 
							JOINT Hand_L
							{
								OFFSET 22.2916 0.0 0.0
								CHANNELS 6 Xposition Yposition Zposition Zrotation Xrotation Yrotation 
								End Site
								{
									OFFSET 0.0 0.0 0.0
								}
							}
						}
					}
				}
				JOINT Shoulder_R
				{
					OFFSET 12.9945 -0.242716 -4.98039
					CHANNELS 6 Xposition Yposition Zposition Zrotation Xrotation Yrotation 
					JOINT UpperArm_R
					{
						OFFSET -5.34813 0.0 0.0
						CHANNELS 6 Xposition Yposition Zposition Zrotation Xrotation Yrotation 
						JOINT LowerArm_R
						{
							OFFSET -24.3289 0.000322201 0.0
							CHANNELS 6 Xposition Yposition Zposition Zrotation Xrotation Yrotation 
							JOINT Hand_R
							{
								OFFSET -22.2915 -0.000108084 0.0
								CHANNELS 6 Xposition Yposition Zposition Zrotation Xrotation Yrotation 
								End Site
								{
									OFFSET 0.0 0.0 0.0
								}
							}
						}
					}
				}
			}
		}
		JOINT UpperLeg_L
		{
			OFFSET -2.19248 -6.46944 0.0
			CHANNELS 6 Xposition Yposition Zposition Zrotation Xrotation Yrotation 
			JOINT LowerLeg_L
			{
				OFFSET 39.0811 0.0 -1.23785e-05
				CHANNELS 6 Xposition Yposition Zposition Zrotation Xrotation Yrotation 
				JOINT Foot_L
				{
					OFFSET 40.9854 0.0 -1.26872e-05
					CHANNELS 6 Xposition Yposition Zposition Zrotation Xrotation Yrotation 
					JOINT Toes_L
					{
						OFFSET 11.7543 0.0 0.0
						CHANNELS 6 Xposition Yposition Zposition Zrotation Xrotation Yrotation 
						End Site
						{
							OFFSET 0.0 0.0 0.0
						}
					}
				}
			}
		}
		JOINT UpperLeg_R
		{
			OFFSET -2.19251 6.46944 0.0
			CHANNELS 6 Xposition Yposition Zposition Zrotation Xrotation Yrotation 
			JOINT LowerLeg_R
			{
				OFFSET -39.0811 -0.00228153 -0.0401928
				CHANNELS 6 Xposition Yposition Zposition Zrotation Xrotation Yrotation 
				JOINT Foot_R
				{
					OFFSET -40.9854 0.0 0.0
					CHANNELS 6 Xposition Yposition Zposition Zrotation Xrotation Yrotation 
					JOINT Toes_R
					{
						OFFSET -11.7543 0.0 0.0
						CHANNELS 6 Xposition Yposition Zposition Zrotation Xrotation Yrotation 
						End Site
						{
							OFFSET 0.0 0.0 0.0
						}
					}
				}
			}
		}
	}
}
MOTION
Frames:	6
Frame Time:	0.0333333
0.000000 0.000000 0.000000 0.000000 0.000000 -0.000000 -0.609377 86.019600 -494.951000 89.586900 -5.779950 1.477800 15.735700 0.000005 -0.000001 90.365700 82.719700 -89.782200 8.984550 -0.406207 -0.000000 6.794050 0.087695 1.160560 16.377300 -0.000001 -0.000001 -1.331580 -2.838060 1.143630 6.456720 -0.000001 -0.000000 -2.994250 -1.736690 0.065841 12.994200 -0.242716 4.980390 -90.851800 3.126950 -74.753600 5.348090 -0.000007 -0.000001 -68.759300 30.131900 -0.347964 24.328600 0.000019 0.000005 2.489490 1.975020 -51.580800 22.291600 -0.000001 0.000005 17.133800 5.515090 -7.156060 12.994500 -0.242716 -4.980390 88.655300 10.516400 -82.671400 -5.348130 -0.000001 -0.000004 -54.186400 24.530900 -23.385800 -24.328900 0.000322 -0.000009 -19.266700 0.075086 -90.213900 -22.291500 -0.000108 -0.000004 23.882200 5.629660 -13.310900 -2.192480 -6.469440 -0.000000 -176.932000 -5.354530 -25.765500 39.081100 -0.000007 -0.000012 0.027844 -0.005192 79.421800 40.985400 -0.000006 -0.000013 3.754850 -2.086540 -58.350100 11.754300 -0.000000 0.000003 -0.004340 -0.054941 -18.811800 -2.192510 6.469440 -0.000001 -177.228000 17.378800 160.426000 -39.081100 -0.002282 -0.040193 0.062741 -0.048217 50.978300 -40.985400 0.000008 0.000006 9.419690 0.052185 -80.521100 -11.754300 -0.000006 -0.000006 -0.002274 -0.032100 -17.878400
0.000000 0.000000 0.000000 0.000000 0.000000 -0.000000 -0.797526 86.294200 -492.128000 89.922900 -6.170460 1.219180 15.735700 0.000005 -0.000001 93.755000 82.713000 -93.347000 8.984550 -0.406207 -0.000000 6.774200 0.947828 0.759033 16.377300 -0.000001 -0.000001 -1.715800 -2.840040 1.480090 6.456720 -0.000001 -0.000000 -3.205180 -2.232500 0.200009 12.994200 -0.242716 4.980390 -90.814400 2.896320 -74.287600 5.348090 -0.000007 -0.000001 -71.223300 29.269300 5.592650 24.328600 0.000019 0.000005 0.117605 0.097226 -50.400800 22.291600 -0.000001 0.000005 17.668500 5.519750 -7.351000 12.994500 -0.242716 -4.980390 88.816500 10.118900 -83.293700 -5.348130 -0.000001 -0.000004 -53.445900 22.645700 -28.547900 -24.328900 0.000322 -0.000009 -18.929900 -0.607563 -88.227600 -22.291500 -0.000108 -0.000004 23.554900 5.627460 -13.147900 -2.192480 -6.469440 -0.000000 -177.656000 -6.350260 -28.857000 39.081100 -0.000007 -0.000012 0.029573 -0.007107 76.474000 40.985400 -0.000006 -0.000013 3.987350 -2.170330 -61.996800 11.754300 -0.000000 0.000003 -0.003854 -0.049920 -18.607300 -2.192510 6.469440 -0.000001 -178.320000 17.481100 163.089000 -39.081100 -0.002282 -0.040193 0.050864 -0.040597 49.548400 -40.985400 0.000008 0.000006 8.933000 0.711477 -81.490000 -11.754300 -0.000006 -0.000006 -0.002156 -0.030658 -17.819800
0.000000 0.000000 0.000000 0.000000 0.000000 -0.000000 -0.947228 87.125900 -489.196000 90.370800 -5.726350 0.624255 15.735700 0.000005 -0.000001 96.075100 82.860100 -95.924600 8.984550 -0.406207 -0.000000 6.433250 1.504990 0.216114 16.377300 -0.000001 -0.000001 -2.038370 -3.066760 1.703220 6.456720 -0.000001 -0.000000 -3.316600 -3.006400 0.434407 12.994200 -0.242716 4.980390 -90.680500 2.368580 -73.965700 5.348090 -0.000007 -0.000001 -73.130900 28.175800 10.606700 24.328600 0.000019 0.000005 -1.018530 -0.829085 -50.853200 22.291600 -0.000001 0.000005 17.342200 5.513570 -7.088150 12.994500 -0.242716 -4.980390 88.978500 9.312390 -83.712500 -5.348130 -0.000001 -0.000004 -54.089600 21.249300 -31.048800 -24.328900 0.000322 -0.000009 -18.660300 -1.566810 -85.370200 -22.291500 -0.000108 -0.000004 23.708200 5.626470 -13.076600 -2.192480 -6.469440 -0.000000 -178.835000 -6.801250 -30.595900 39.081100 -0.000007 -0.000012 0.018652 -0.007257 68.725500 40.985400 -0.000006 -0.000013 3.692070 -1.704410 -64.406200 11.754300 -0.000000 0.000003 -0.003887 -0.050266 -18.621400 -2.192510 6.469440 -0.000001 -179.452000 17.872800 166.497000 -39.081100 -0.002282 -0.040193 0.034987 -0.030712 45.930300 -40.985400 0.000008 0.000006 8.008800 1.228590 -81.251700 -11.754300 -0.000006 -0.000006 -0.001430 -0.021340 -17.440900
0.000000 0.000000 0.000000 0.000000 0.000000 -0.000000 -0.974037 88.153100 -486.204000 91.245700 -4.947780 -0.404318 15.735700 0.000005 -0.000001 98.652600 83.228200 -98.936700 8.984550 -0.406207 -0.000000 5.631390 2.037930 -0.667735 16.377300 -0.000001 -0.000001 -2.231330 -3.469040 1.838530 6.456720 -0.000001 -0.000000 -3.262340 -3.981600 0.622909 12.994200 -0.242716 4.980390 -90.478500 1.649550 -73.821600 5.348090 -0.000007 -0.000001 -74.389000 27.240600 14.163900 24.328600 0.000019 0.000005 -1.156090 -0.905292 -51.949300 22.291600 -0.000001 0.000005 16.419400 5.502890 -6.649980 12.994500 -0.242716 -4.980390 89.076100 8.439900 -83.729800 -5.348130 -0.000001 -0.000004 -55.255800 20.634800 -31.168400 -24.328900 0.000322 -0.000009 -18.986300 -2.745350 -82.074700 -22.291500 -0.000108 -0.000004 24.246800 5.628410 -13.215600 -2.192480 -6.469440 -0.000000 179.156000 -7.473800 -31.249600 39.081100 -0.000007 -0.000012 0.008031 -0.005158 57.266900 40.985400 -0.000006 -0.000013 2.334490 -2.047150 -65.077300 11.754300 -0.000000 0.000003 -0.003795 -0.049301 -18.582100 -2.192510 6.469440 -0.000001 179.169000 17.924700 169.660000 -39.081100 -0.002282 -0.040193 0.022816 -0.021975 41.646400 -40.985400 0.000008 0.000006 7.031390 1.170720 -79.880300 -11.754300 -0.000006 -0.000006 -0.002329 -0.032766 -17.905500
0.000000 0.000000 0.000000 0.000000 0.000000 -0.000000 -1.010480 89.088100 -482.951000 91.721000 -4.292990 -1.303990 15.735700 0.000005 -0.000001 101.817000 83.551500 -102.434000 8.984550 -0.406207 -0.000000 4.876320 2.651610 -1.345400 16.377300 -0.000001 -0.000001 -2.376130 -3.857380 1.880170 6.456720 -0.000001 -0.000000 -3.151720 -4.809240 0.838639 12.994200 -0.242716 4.980390 -90.232000 0.798880 -73.806700 5.348090 -0.000007 -0.000001 -75.284200 26.091600 16.158400 24.328600 0.000019 0.000005 -0.067650 -0.051284 -52.947400 22.291600 -0.000001 0.000005 15.995400 5.500550 -6.556480 12.994500 -0.242716 -4.980390 89.125800 7.857730 -83.631600 -5.348130 -0.000001 -0.000004 -56.398800 20.811600 -29.506800 -24.328900 0.000322 -0.000009 -19.480700 -4.025440 -78.775900 -22.291500 -0.000108 -0.000004 25.218100 5.630140 -13.346200 -2.192480 -6.469440 -0.000000 177.431000 -8.687670 -30.190700 39.081100 -0.000007 -0.000012 0.002077 -0.002118 44.402900 40.985400 -0.000006 -0.000013 1.679490 -0.577020 -65.632000 11.754300 -0.000000 0.000003 -0.003633 -0.047571 -18.511700 -2.192510 6.469440 -0.000001 178.097000 17.970200 172.366000 -39.081100 -0.002282 -0.040193 0.021039 -0.022222 38.627200 -40.985400 0.000008 0.000006 6.570400 1.384380 -77.196500 -11.754300 -0.000006 -0.000006 -0.008757 -0.094100 -20.405700
0.000000 0.000000 0.000000 0.000000 0.000000 -0.000000 -0.976546 89.738800 -479.195000 91.373500 -3.901090 -1.607290 15.735700 0.000005 -0.000001 104.841000 83.684100 -105.456000 8.984550 -0.406207 -0.000000 4.467990 3.247660 -1.355360 16.377300 -0.000001 -0.000001 -2.336790 -4.100320 1.731300 6.456720 -0.000001 -0.000000 -3.005350 -5.326710 0.909062 12.994200 -0.242716 4.980390 -90.099900 0.348346 -73.996100 5.348090 -0.000007 -0.000001 -75.889000 24.915000 16.769300 24.328600 0.000019 0.000005 -0.227881 -0.167241 -53.712600 22.291600 -0.000001 0.000005 16.351900 5.495040 -6.334950 12.994500 -0.242716 -4.980390 89.144800 7.716140 -83.656400 -5.348130 -0.000001 -0.000004 -57.148100 21.525800 -26.623000 -24.328900 0.000322 -0.000009 -20.469600 -5.499180 -75.601700 -22.291500 -0.000108 -0.000004 25.233700 5.632290 -13.509900 -2.192480 -6.469440 -0.000000 176.304000 -10.149500 -28.244800 39.081100 -0.000007 -0.000012 0.060457 -0.087948 34.504600 40.985400 -0.000006 -0.000013 2.786040 0.946297 -66.776800 11.754300 -0.000000 0.000003 -0.004057 -0.052036 -18.693500 -2.192510 6.469440 -0.000001 177.426000 17.974800 174.491000 -39.081100 -0.002282 -0.040193 0.032597 -0.037231 38.215100 -40.985400 0.000008 0.000006 6.052510 2.088690 -73.358800 -11.754300 -0.000006 -0.000006 -0.027820 -0.207293 -25.060400
